<svg xmlns="http://www.w3.org/2000/svg" viewBox="0 0 150.79 48.7" style="" class=""><defs><style>.cls-1{fill:none;stroke:#fff;stroke-miterlimit:10;}</style></defs><title>RM3 Outline</title><g id="Layer_2" data-name="Layer 2"><g id="Layer_1-2" data-name="Layer 1"><path class="cls-1 peixzOlK_0" d="M49.82.5H71.37l5.88,22c1.08,4.73,1.29,5.81,2,10.13A107.65,107.65,0,0,1,81.44,21L86.85.5h21.62V48.2H94.08V20.63c.06-3.51.13-4.39.4-8.44-.81,3.58-.94,4.26-1.89,7.7L84.68,48.2H73.47L66.1,21.38c-1-3.85-1.08-3.92-2.23-8.92.21,3,.27,3.72.27,6.42V48.2H49.82Z"></path><path class="cls-1 peixzOlK_1" d="M123.33,21.31l1.89,6.82h5.54c4.43,0,7.11,1.48,7.61,4L147,23.54A18.58,18.58,0,0,0,139,20l11.29-9.66V.91H116.1v10.6h18.11Z"></path><path class="cls-1 peixzOlK_2" d="M123,47.53l9.61-9.61h-.18c-4.32,0-7.9-2-11.28-5.4l-8.25,8.24A24.52,24.52,0,0,0,123,47.53Z"></path><path class="cls-1 peixzOlK_3" d="M40.63,25.3a13.37,13.37,0,0,0,3.65-9.6c0-4.59-1.89-11.08-8.24-13.78A21.88,21.88,0,0,0,29.38.6l-9.83,9.83h2.3c2.64,0,7.37.14,7.37,5.61s-4.8,5.54-7.3,5.54H15.63V14.35L.5,29.48V48.2H15.63V31.38h4.46L29.35,48.2H46.11L34.49,29C36.71,28.07,38.74,27.32,40.63,25.3Z"></path></g></g><style data-made-with="vivus-instant">.peixzOlK_0{stroke-dasharray:391 393;stroke-dashoffset:392;}.start .peixzOlK_0{animation:peixzOlK_draw 2000ms linear 0ms forwards;}.peixzOlK_1{stroke-dasharray:145 147;stroke-dashoffset:146;}.start .peixzOlK_1{animation:peixzOlK_draw 2000ms linear 333ms forwards;}.peixzOlK_2{stroke-dasharray:51 53;stroke-dashoffset:52;}.start .peixzOlK_2{animation:peixzOlK_draw 2000ms linear 666ms forwards;}.peixzOlK_3{stroke-dasharray:228 230;stroke-dashoffset:229;}.start .peixzOlK_3{animation:peixzOlK_draw 2000ms linear 1000ms forwards;}@keyframes peixzOlK_draw{100%{stroke-dashoffset:0;}}@keyframes peixzOlK_fade{0%{stroke-opacity:1;}94.44444444444444%{stroke-opacity:1;}100%{stroke-opacity:0;}}</style></svg>