<svg xmlns="http://www.w3.org/2000/svg" viewBox="0 0 732.68 234"><defs><style>.cls-1{fill:none;stroke:#fff;stroke-miterlimit:10;}</style></defs><title>logo-outline</title><g id="Layer_2" data-name="Layer 2"><g id="Layer_1-2" data-name="Layer 1"><g id="Layer_2-2" data-name="Layer 2"><g id="Layer_1-2-2" data-name="Layer 1-2"><path class="cls-1" d="M241.41.5H346.68L375.4,108c5.28,23.11,6.3,28.38,9.77,49.49a523.89,523.89,0,0,1,10.7-56.81L422.29.5H527.9v233H457.61V98.83c.29-17.15.63-21.44,1.95-41.23-3.95,17.49-4.59,20.81-9.23,37.61L411.69,233.5H356.94l-36-131c-4.89-18.8-5.28-19.15-10.9-43.57,1,14.66,1.32,18.17,1.32,31.36V233.5h-70Z"/><path class="cls-1" d="M600.49,102.15l9.23,33.31h27.06c21.64,0,34.73,7.23,37.17,19.54l42.16-42A90.78,90.78,0,0,0,677,95.75l55.15-47.18V2.5h-167V54.28h88.46Z"/><path class="cls-1" d="M598.88,230.23l46.94-46.94h-.88c-21.1,0-38.59-9.77-55.1-26.38l-40.3,40.25A119.78,119.78,0,0,0,598.88,230.23Z"/><path class="cls-1" d="M196.52,121.64a65.28,65.28,0,0,0,17.83-46.89c0-22.42-9.23-54.13-40.25-67.31A106.74,106.74,0,0,0,141.57,1l-48,48h11.24c12.89,0,36,.68,36,27.4s-23.45,27.06-35.66,27.06H74.41V68.15L.5,142.06V233.5H74.41V151.34H96.19l45.23,82.16h81.87l-56.76-93.79C177.37,135.17,187.29,131.51,196.52,121.64Z"/></g></g></g></g></svg>