<svg xmlns="http://www.w3.org/2000/svg" viewBox="0 0 1440 900"><defs><style>.cls-1{fill:#fff;}</style></defs><title>logo-mask</title><g id="Layer_2" data-name="Layer 2"><g id="Layer_1-2" data-name="Layer 1"><path class="cls-1" d="M0,0V900H1440V0ZM494.48,565.85l-45.23-82.16H427.46v82.16h-73.9V474.41l73.9-73.91v35.32h30.73c12.21,0,35.65-.34,35.65-27.06s-23.1-27.4-36-27.4H446.61l48-48a106.74,106.74,0,0,1,32.53,6.45c31,13.18,40.25,44.89,40.25,67.31A65.32,65.32,0,0,1,549.58,454c-9.23,9.87-19.15,13.53-30,18.07l56.76,93.79Zm386.48,0H810.67V431.18c.29-17.15.63-21.44,2-41.23-4,17.49-4.59,20.81-9.23,37.61L764.75,565.85H710l-36-131c-4.88-18.8-5.27-19.15-10.89-43.57,1,14.66,1.32,18.17,1.32,31.36V565.85H594.47v-233H699.73l28.73,107.46c5.27,23.11,6.3,28.38,9.77,49.49A526.29,526.29,0,0,1,748.92,433l26.43-100.14H881Zm71-3.27a119.75,119.75,0,0,1-49.33-33.07l40.29-40.25c16.51,16.61,34,26.38,55.1,26.38h.88Zm133.3-181.66-55.14,47.18a90.75,90.75,0,0,1,39.07,17.29l-42.15,42c-2.44-12.31-15.53-19.54-37.17-19.54H962.77l-9.23-33.31,53.15-47.87H918.23V334.85h167Z"/></g></g></svg>